CD_DA
CD_TEXT { LANGUAGE_MAP { 0:EN }
    LANGUAGE 0 {
        TITLE "Laughing Gas"
        PERFORMER "Juno Reactor"
        DISC_ID "2804A003"
}}

//Track 1
TRACK AUDIO
    CD_TEXT { LANGUAGE 0 {
        TITLE "Laughing Gas"
        PERFORMER "Juno Reactor"
    }}
    AUDIOFILE "01 - Laughing Gas.wav" 00:00:00 07:55:27

//Track 2
TRACK AUDIO
    CD_TEXT { LANGUAGE 0 {
        TITLE "Laughing Gas (On the other side mix)"
        PERFORMER "Juno Reactor"
    }}
    AUDIOFILE "01 - Laughing Gas.wav" 07:55:27
    START
    AUDIOFILE "02 - Laughing Gas (On the other side mix).wav" 00:00:00 06:46:23

//Track 3
TRACK AUDIO
    CD_TEXT { LANGUAGE 0 {
        TITLE "Lullaby"
        PERFORMER "Juno Reactor"
    }}
    AUDIOFILE "02 - Laughing Gas (On the other side mix).wav" 06:46:23
    START
    AUDIOFILE "03 - Lullaby.wav" 00:00:00